<?xml version="1.0" encoding="utf-8"?>
<!-- Generator: Adobe Illustrator 23.0.1, SVG Export Plug-In . SVG Version: 6.00 Build 0)  -->
<svg version="1.1" id="Layer_1" xmlns="http://www.w3.org/2000/svg" xmlns:xlink="http://www.w3.org/1999/xlink" x="0px" y="0px"
	 viewBox="0 0 1200 580" style="enable-background:new 0 0 1200 580;" xml:space="preserve">
<style type="text/css">
	.st0{fill:#FFFA72;}
	.st1{fill:#111111;}
	.st2{fill:#151515;}
	.st3{fill:#1A1A1A;}
	.st4{fill:#1E1E1E;}
	.st5{fill:#222222;}
	.st6{fill:#262626;}
	.st7{fill:#2B2B2B;}
	.st8{fill:#2F2F2F;}
	.st9{fill:#333333;}
	.st10{fill:#373737;}
	.st11{fill:#3C3C3C;}
	.st12{fill:#404040;}
</style>
<path class="st0" d="M459.6,131.4c-28.7,61.7-23.3,100.4,16.3,116.1c59.3,23.5,200.3,32.9,259.3,83.9c59,51,238.7,11.6,269.4-75.9
	C1035.3,167.9,1090.7,33,798.8,33C604.2,33,491.2,65.8,459.6,131.4L459.6,131.4z"/>
<path class="st1" d="M37.4,253.3c19.4,172.8,97.2,281.2,233.2,325.1c204.1,65.8,614.2,92.2,861.7,234.9
	c247.5,142.8,687.1,32.4,631.6-212.7c-55.4-245.1-118.5-622.8-935.7-622.8C283.4-22.1,19.8,69.7,37.4,253.3L37.4,253.3z"/>
<path class="st2" d="M69,243.1c9.1,163.6,76.9,266.1,203.3,307.6c189.6,62.3,576.3,87.2,802.9,222.4
	c226.6,135.1,648.5,30.7,609.2-201.3c-39.3-231.9-78.7-589.4-852.1-589.4C316.7-17.6,62.3,69.3,69,243.1L69,243.1z"/>
<path class="st3" d="M101.5,233c0.2,154.3,58.9,251.1,176,290.2C453.2,582,816.7,605.5,1023.6,733
	c206.8,127.5,610.2,28.9,585.1-189.9C1583.5,324.3,1564.6-13,834.9-13C348.5-13,104,69,101.5,233L101.5,233z"/>
<path class="st4" d="M134.7,222.8c-7.3,145.1,43.1,236,151.3,272.8c162.3,55.2,502.9,77.3,691,197.2
	c188.2,119.8,572.2,27.2,559.2-178.5C1523.3,308.7,1522-8.3,836.2-8.3C378.9-8.3,145.1,68.7,134.7,222.8L134.7,222.8z"/>
<path class="st5" d="M168.6,212.7c-13.7,135.8,29.2,220.9,128.8,255.4c149.3,51.7,467.1,72.4,637.6,184.6
	c170.5,112.2,534.4,25.5,531.9-167.1C1464.5,293,1478.2-3.8,836.1-3.8C408.1-3.8,185.5,68.4,168.6,212.7L168.6,212.7z"/>
<path class="st6" d="M203.1,202.5c-18.9,126.5,17.2,205.9,108.4,238c136.8,48.2,432,67.5,585.8,172
	c153.8,104.5,496.8,23.7,503.3-155.7c6.4-179.4,32.7-456-565.6-456C436.1,0.9,225.4,68.1,203.1,202.5L203.1,202.5z"/>
<path class="st7" d="M238.2,192.4c-23.1,117.3,6.9,190.8,90,220.6c124.7,44.7,397.4,62.5,535.4,159.4c138,96.9,459.4,22,473.3-144.3
	c13.8-166.3,50.3-422.6-504.2-422.6C463,5.4,264.8,67.8,238.2,192.4L238.2,192.4z"/>
<path class="st8" d="M273.8,182.2c-26.3,108-1.8,175.7,73.5,203.2c112.9,41.1,363.4,57.6,486.3,146.8
	c122.9,89.2,422.2,20.3,442.1-132.9C1295.6,246.1,1340.1,10,829.3,10C488.8,10,303.7,67.4,273.8,182.2L273.8,182.2z"/>
<path class="st9" d="M310,172c-28.5,98.8-8.9,160.7,58.8,185.8c101.5,37.6,329.8,52.7,438.6,134.2
	c108.7,81.6,385.2,18.5,409.7-121.5c24.5-140,75-355.9-392-355.9C513.7,14.6,342,67.1,310,172L310,172z"/>
<path class="st10" d="M346.7,161.9c-29.8,89.5-14.6,145.6,45.8,168.3c90.5,34.1,296.8,47.7,392,121.7
	c95.2,73.9,348.3,16.8,376.2-110.1c27.9-126.9,82.4-322.5-340.8-322.5C537.7,19.2,380,66.8,346.7,161.9L346.7,161.9z"/>
<path class="st11" d="M383.8,151.7C353.6,232,365,282.3,418.2,302.7c79.8,30.6,264.2,42.8,346.6,109.1
	c82.4,66.3,311.6,15,341.6-98.7c30-113.8,86.6-289.1-292.8-289.1C560.7,23.9,417.5,66.5,383.8,151.7L383.8,151.7z"/>
<path class="st12" d="M421.5,141.6c-29.9,71-21.7,115.5,24.5,133.5c69.4,27,232.1,37.8,302.4,96.5c70.4,58.6,275.1,13.3,306-87.3
	c31-100.7,87.8-255.8-247.8-255.8C582.9,28.4,454.5,66.2,421.5,141.6L421.5,141.6z"/>
</svg>
