<svg width="1200" height="580" xmlns="http://www.w3.org/2000/svg" class="topography-shape js-shape">

 <g>
  <title>background</title>
  <rect fill="none" id="canvas_background" height="602" width="802" y="-1" x="-1"/>
 </g>
 <g>
  <title>Layer 1</title>
  <path id="svg_1" fill-rule="nonzero" fill="#FFFA72" d="m991.567,25.372c-28.692,61.724 -23.266,100.422 16.275,116.094c59.313,23.508 200.347,32.911 259.299,83.906c58.95,50.994 238.697,11.572 269.438,-75.95c30.741,-87.522 86.09,-222.422 -205.771,-222.422c-194.576,0 -307.654,32.79 -339.24,98.372l-0.001,0z"/>
  <path id="svg_2" transform="translate(-1800, 60) scale(2.8) skewX(30)" fill-rule="nonzero" fill="#FFFA72" d="m1104.30938,160.37868c-6.75366,47.87936 -5.47646,77.89744 3.83089,90.05422c13.96137,18.23518 47.15862,25.52909 61.03502,65.08596c13.87593,39.55609 56.18562,8.97641 63.42158,-58.91449c7.23596,-67.8909 20.26427,-172.53295 -48.43535,-172.53295c-45.80021,0 -72.41705,25.43523 -79.85191,76.30725l-0.00024,0z"/>
  <path id="svg_6" transform="translate(-1200, 40) scale(2.2) skewX(20)" fill-rule="nonzero" fill="#884D58" d="m717.66692,32.09928c-28.692,61.724 -23.266,100.422 16.275,116.094c59.313,23.508 200.347,32.911 259.299,83.906c58.95,50.994 238.697,11.572 269.438,-75.95c30.741,-87.522 86.09,-222.422 -205.771,-222.422c-194.576,0 -307.654,32.79 -339.24,98.372l-0.001,0z"/>
  <path id="svg_7" transform="translate(-1050, 35) scale(2.05) skewX(17.5)" fill-rule="nonzero" fill="#7DD8B5" d="m500.30322,109.00616c-28.692,61.724 -23.266,100.422 16.275,116.094c59.313,23.508 200.347,32.911 259.299,83.906c58.95,50.994 238.697,11.572 269.438,-75.95c30.741,-87.522 86.09,-222.422 -205.771,-222.422c-194.576,0 -307.654,32.79 -339.24,98.372l-0.001,0z"/>
  <path id="svg_8" transform="translate(-900, 30) scale(1.9) skewX(15)" fill-rule="nonzero" fill="#FFFA72" d="m653.47582,146.47727c-28.692,61.724 -23.266,100.422 16.275,116.094c59.313,23.508 200.347,32.911 259.299,83.906c58.95,50.994 238.697,11.572 269.438,-75.95c30.741,-87.522 86.09,-222.422 -205.771,-222.422c-194.576,0 -307.654,32.79 -339.24,98.372l-0.001,0z"/>
  <path id="svg_10" transform="translate(-600, 20) scale(1.6) skewX(10)" fill-rule="nonzero" fill="#C48157" d="m565.67859,350.622c-28.692,61.724 -23.266,100.422 16.275,116.094c59.313,23.508 200.347,32.911 259.299,83.906c58.95,50.994 238.697,11.572 269.438,-75.95c30.741,-87.522 86.09,-222.422 -205.771,-222.422c-194.576,0 -307.654,32.79 -339.24,98.372l-0.001,0z"/>
 </g>
</svg>